<!-- Generated by IcoMoon.io -->
<svg version="1.1" xmlns="http://www.w3.org/2000/svg" width="1024" height="1024" viewBox="0 0 1024 1024">
<title></title>
<g id="icomoon-ignore">
</g>
<path fill="#14bf98" d="M612.694 262.528c-4.022-4.172-9.566-6.528-15.36-6.528h-170.666c-5.794 0-11.338 2.356-15.36 6.528-31.19 32.298-304.642 319.19-304.642 441.472 0 176.47 181.846 320 405.334 320s405.334-143.53 405.334-320c0-122.282-273.452-409.174-304.64-441.472z"></path>
<path fill="#14bf98" d="M784 28.544c-35.542-40.192-128 12.544-181.078 48.256-24.32-34.56-60.33-76.8-90.922-76.8s-66.602 42.24-90.922 76.8c-52.95-35.754-145.58-88.49-181.078-48.256-9.84 11.346-14.482 26.292-12.8 41.216 6.87 79.018 167.722 209.622 186.026 224.214 3.81 3.058 8.554 4.714 13.44 4.694h170.666c4.836 0.004 9.53-1.636 13.312-4.65 18.304-14.634 179.2-145.066 186.026-224.214 1.748-14.922-2.85-29.892-12.67-41.26z"></path>
<path fill="#113448" d="M682.666 298.666h-341.332c-11.782 0-21.334-9.552-21.334-21.334s9.552-21.332 21.334-21.332h341.334c11.782 0 21.334 9.552 21.334 21.334s-9.554 21.332-21.336 21.332z"></path>
<path fill="#fff" d="M512 853.334c-50.73 5.010-96.938-29.406-106.666-79.446-0.99-11.782 7.76-22.136 19.542-23.126s22.136 7.76 23.126 19.542c1.878 22.272 30.592 40.362 64 40.362 34.73 0 64-19.542 64-42.666 0-20.822-20.224-34.134-63.616-42.24l-4.65-0.854c-69.248-12.8-102.4-41.088-102.4-84.906 6.674-52.584 53.9-90.364 106.666-85.334 50.73-5.010 96.938 29.406 106.666 79.446 0.99 11.782-7.76 22.136-19.542 23.126s-22.136-7.76-23.126-19.542v0c-1.792-22.272-30.506-40.362-64-40.362-34.73 0-64 19.542-64 42.666 0 20.822 20.266 34.134 63.702 42.24l4.694 0.896c69.12 12.8 102.4 41.046 102.4 84.906-6.698 52.622-53.996 90.398-106.796 85.292z"></path>
<path fill="#fff" d="M512 896c-11.782 0-21.334-9.552-21.334-21.334v-341.332c0-11.782 9.552-21.334 21.334-21.334s21.334 9.552 21.334 21.334v341.334c0 11.78-9.552 21.332-21.334 21.332z"></path>
</svg>
