<?xml version="1.0" encoding="utf-8"?>
<!-- Generator: Adobe Illustrator 19.2.1, SVG Export Plug-In . SVG Version: 6.00 Build 0)  -->
<svg version="1.1" id="Layer_2" xmlns="http://www.w3.org/2000/svg" xmlns:xlink="http://www.w3.org/1999/xlink" x="0px" y="0px"
	 viewBox="0 0 134 38" style="enable-background:new 0 0 134 38;" xml:space="preserve">
<style type="text/css">
	.st0{fill:#14BF98;}
	.st1{fill:#FFFFFF;}
</style>
<title>logo</title>
<polygon class="st0" points="5.7,15.7 1.9,15.7 0,19 1.9,22.3 5.7,22.3 7.7,19 "/>
<polygon class="st0" points="10.3,7.8 6.5,7.8 4.6,11.1 6.5,14.4 10.3,14.4 12.2,11.1 "/>
<polygon class="st0" points="14.8,0 11,0 9.1,3.3 11,6.6 14.8,6.6 16.7,3.3 "/>
<polygon class="st0" points="23.9,0 20,0 18.1,3.3 20,6.6 23.9,6.6 25.8,3.3 "/>
<polygon class="st0" points="19.1,8.6 16.2,8.6 14.7,11.1 16.2,13.6 19.1,13.6 20.6,11.1 "/>
<polygon class="st0" points="28.2,8.6 25.2,8.6 23.8,11.1 25.2,13.6 28.2,13.6 29.6,11.1 "/>
<polygon class="st0" points="18.8,25.7 16.5,25.7 15.4,27.7 16.5,29.7 18.8,29.7 19.9,27.7 "/>
<polygon class="st0" points="27.9,25.7 25.6,25.7 24.4,27.7 25.6,29.7 27.9,29.7 29,27.7 "/>
<polygon class="st0" points="22.9,34.7 21,34.7 20,36.3 21,38 22.9,38 23.9,36.3 "/>
<polygon class="st0" points="32.9,0 29.1,0 27.2,3.3 29.1,6.6 32.9,6.6 34.9,3.3 "/>
<polygon class="st0" points="14.5,16.2 11.3,16.2 9.8,18.9 11.3,21.6 14.5,21.6 16,18.9 "/>
<polygon class="st0" points="32.6,16.2 29.5,16.2 27.9,18.9 29.5,21.6 32.6,21.6 34.2,18.9 "/>
<polygon class="st0" points="23.3,16.6 20.6,16.6 19.3,18.9 20.6,21.2 23.3,21.2 24.6,18.9 "/>
<polygon class="st0" points="37.4,7.8 33.6,7.8 31.7,11.1 33.6,14.4 37.4,14.4 39.3,11.1 "/>
<polygon class="st0" points="9.7,25 6.6,25 5,27.7 6.6,30.4 9.7,30.4 11.3,27.7 "/>
<polygon class="st0" points="12.4,34.9 10.6,34.9 9.7,36.5 10.6,38 12.4,38 13.3,36.5 "/>
<polygon class="st0" points="42,15.7 38.2,15.7 36.3,19 38.2,22.3 42,22.3 43.9,19 "/>
<polygon class="st0" points="37.3,25 34.2,25 32.6,27.7 34.2,30.4 37.3,30.4 38.9,27.7 "/>
<polygon class="st0" points="33.3,33.7 30.8,33.7 29.5,35.8 30.8,38 33.3,38 34.5,35.8 "/>
<path class="st1" d="M79,34.5h-6.1v-6.1H60.7v6.1h-6.1V16.3c0-1.6,0.3-3.2,1-4.7c0.6-1.4,1.5-2.8,2.6-3.9c1.1-1.1,2.4-2,3.9-2.6
	c3-1.3,6.5-1.3,9.5,0c2.9,1.2,5.3,3.6,6.5,6.5c0.6,1.5,1,3.1,1,4.7L79,34.5L79,34.5z M72.9,22.4v-6.1c0-0.8-0.2-1.6-0.5-2.4
	c-0.6-1.5-1.8-2.6-3.3-3.2c-1.5-0.6-3.2-0.6-4.7,0c-1.5,0.6-2.6,1.8-3.3,3.2c-0.3,0.7-0.5,1.6-0.5,2.4v6.1H72.9z"/>
<path class="st1" d="M89.5,34.5h-5.8V11.8h1.4l1.9,2.7c1.9-1.7,4.3-2.7,6.9-2.7H99v5.8h-5.1c-0.6,0-1.2,0.1-1.7,0.3
	c-1.6,0.7-2.7,2.3-2.7,4.1L89.5,34.5L89.5,34.5z"/>
<path class="st1" d="M108.6,5.6c0,0.5-0.1,1-0.3,1.5c-0.2,0.5-0.5,0.9-0.8,1.2c-0.4,0.4-0.8,0.6-1.2,0.8c-1,0.4-2.1,0.4-3,0
	c-0.9-0.4-1.7-1.1-2.1-2c-0.4-1-0.4-2,0-3c0.4-0.9,1.1-1.7,2.1-2.1c1-0.4,2.1-0.4,3,0c0.5,0.2,0.9,0.5,1.2,0.8
	c0.4,0.4,0.6,0.8,0.8,1.2C108.4,4.6,108.6,5.1,108.6,5.6z M107.6,34.5h-5.8V11.8h5.8V34.5z"/>
<path class="st1" d="M134,34.5h-1.4l-2.3-3.1c-0.6,0.5-1.1,1-1.8,1.4c-0.6,0.4-1.3,0.8-1.9,1.1c-0.7,0.3-1.4,0.6-2.1,0.8
	c-0.7,0.2-1.4,0.3-2.2,0.3c-1.5,0-3.1-0.3-4.5-0.8c-1.4-0.5-2.6-1.3-3.7-2.3c-1.1-1.1-1.9-2.4-2.5-3.8c-0.6-1.6-0.9-3.3-0.9-5.1
	c0-1.7,0.3-3.3,0.9-4.9c0.6-1.4,1.4-2.7,2.5-3.8c1.1-1.1,2.3-1.9,3.7-2.5c1.4-0.6,3-0.9,4.5-0.9c0.7,0,1.5,0.1,2.2,0.3
	c0.7,0.2,1.4,0.4,2.1,0.8c0.7,0.3,1.3,0.7,1.9,1.1c0.6,0.4,1.2,0.9,1.7,1.4l2.3-2.7h1.4V34.5L134,34.5z M128.2,23
	c0-0.8-0.2-1.6-0.5-2.3c-0.3-0.7-0.7-1.4-1.2-2c-0.5-0.6-1.1-1-1.8-1.4c-0.7-0.3-1.5-0.5-2.2-0.5c-0.8,0-1.5,0.1-2.2,0.4
	c-0.7,0.3-1.3,0.7-1.8,1.2c-0.5,0.6-1,1.2-1.2,1.9c-0.3,0.8-0.5,1.7-0.4,2.6c0,0.9,0.1,1.8,0.4,2.6c0.3,0.7,0.7,1.4,1.2,1.9
	c0.5,0.5,1.1,0.9,1.8,1.2c0.7,0.3,1.5,0.4,2.2,0.4c0.8,0,1.5-0.2,2.2-0.5c0.7-0.3,1.3-0.8,1.8-1.4c0.5-0.6,0.9-1.2,1.2-2
	C128,24.5,128.2,23.8,128.2,23z"/>
</svg>
